<?xml version="1.0" encoding="UTF-8"?>
<svg id="Layer_1" xmlns="http://www.w3.org/2000/svg" version="1.1" viewBox="0 0 495.5 495.5">
  <!-- Generator: Adobe Illustrator 30.1.0, SVG Export Plug-In . SVG Version: 2.1.1 Build 136)  -->
  <defs>
    <style>
      .st0 {
        fill: #133244;
      }

      .st1 {
        fill: #efe7d4;
      }
    </style>
  </defs>
  <rect class="st0" x="0" y="0" width="495.5" height="495.5"/>
  <g>
    <g>
      <path class="st1" d="M87,150.2c-9,0-12.5-4.6-12.5-13.7v-19.2h8.6v22.6c0,2.9,1.3,4.2,3.9,4.2h4.1v-22.7c0-8.6,2.9-13.4,12.3-13.4s8.4,1,11.8,2.8v25h3.3c.8,0,1.3,1.1,1.3,3s-.5,3-1.3,3h-11.9v-27.7h-3c-2.6,0-3.7,1.6-3.7,4.4v29.3c-3.6,1.6-7.8,2.4-12.2,2.4h-.5ZM80.6,157.5c0-2.4,1-3.7,3.1-3.7s3.1,1.3,3.1,3.7-1,3.7-3.1,3.7-3.1-1.3-3.1-3.7ZM88.1,157.5c0-2.4,1-3.7,3.1-3.7s3.1,1.3,3.1,3.7-1,3.7-3.1,3.7-3.1-1.3-3.1-3.7Z"/>
      <path class="st1" d="M117.3,138.7c0-1.9.5-3,1.3-3h4.8c-1.3-2.7-2.1-6.1-2.1-10.4v-1.2c0-10.7,4.3-16.3,12.4-16.3s12.1,5.2,12.1,16v11.8h3c.8,0,1.3,1.1,1.3,3s-.5,3-1.3,3h-30.2c-.8,0-1.3-1.1-1.3-3ZM137,135.8v-16.9c0-3.2-1.1-4.9-3.4-4.9s-3.5,1.7-3.5,4.9v12c0,3.2,1.2,4.9,3.6,4.9h3.3ZM130.4,100.9c0-2.4,1-3.7,3.1-3.7s3.1,1.3,3.1,3.7-1,3.7-3.1,3.7-3.1-1.3-3.1-3.7Z"/>
      <path class="st1" d="M147.4,138.7c0-1.9.5-3,1.3-3h3.4v-37.3h8.7v37.3h3.4c.8,0,1.3,1.1,1.3,3s-.5,3-1.3,3h-15.4c-.8,0-1.3-1.1-1.3-3Z"/>
      <path class="st1" d="M162.8,138.7c0-1.9.5-3,1.3-3h3.4v-22.9h8.7v22.9h5.8v-22.9h8.7v22.9h5.8v-27.4h8.6v27.4h3.7c.8,0,1.3,1.1,1.3,3s-.5,3-1.3,3h-44.8c-.8,0-1.3-1.1-1.3-3Z"/>
      <path class="st1" d="M207.7,138.7c0-1.9.5-3,1.3-3h3.4v-37.3h8.7v43.3h-12.1c-.8,0-1.3-1.1-1.3-3Z"/>
      <path class="st1" d="M227.4,141.7v-43.3h8.6v43.3h-8.6Z"/>
      <path class="st1" d="M256.7,141.7v-6h6.8v-17.5c0-2.7-1.1-4.1-3.8-4.1h-2.2v-4.1c2.3-1.3,4.9-2.1,7.2-2.1,5,0,7.5,3.2,7.5,9.5v18.4h3.1c.8,0,1.3,1.1,1.3,3s-.5,3-1.3,3h-18.5Z"/>
      <path class="st1" d="M274,138.7c0-1.9.5-3,1.3-3h17.7v-16.9c0-3.2-1.2-4.9-3.4-4.9s-3.4,1.7-3.4,4.9v11h-8.1s-.7-2.8-.7-6.5c0-9.9,4.2-15.5,12.2-15.5s12.3,5.6,12.3,16.3v1.2c0,3.4-.3,6.9-.9,10.4h3.6c.8,0,1.3,1.1,1.3,3s-.5,3-1.3,3h-29.4c-.8,0-1.3-1.1-1.3-3ZM286.5,149.5c0-2.4,1-3.7,3.1-3.7s3.1,1.3,3.1,3.7-1,3.7-3.1,3.7-3.1-1.3-3.1-3.7Z"/>
      <path class="st1" d="M303.4,138.7c0-1.9.5-3,1.3-3h7.2c.8,0,1.3,1.1,1.3,3s-.5,3-1.3,3h-7.2c-.8,0-1.3-1.1-1.3-3Z"/>
      <path class="st1" d="M310.5,138.7c0-1.9.5-3,1.3-3h7.2c.8,0,1.3,1.1,1.3,3s-.5,3-1.3,3h-7.2c-.8,0-1.3-1.1-1.3-3Z"/>
      <path class="st1" d="M317.7,138.7c0-1.9.5-3,1.3-3h3.4v-22.9h8.7v22.9h5.8v-22.9h8.7v22.9h5.8v-27.4h8.6v27.4h3.7c.8,0,1.3,1.1,1.3,3s-.5,3-1.3,3h-44.8c-.8,0-1.3-1.1-1.3-3Z"/>
      <path class="st1" d="M362.5,138.7c0-1.9.5-3,1.3-3h4.6c-1.3-2.7-2.1-6.1-2.1-10.4v-1.2c0-10.7,4.3-16.3,12.4-16.3s12.4,5.6,12.4,16.3v1.2c0,4.3-.7,7.7-2.1,10.4h4.8c.8,0,1.3,1.1,1.3,3s-.5,3-1.3,3h-30.1c-.8,0-1.3-1.1-1.3-3ZM382.2,130.8v-12c0-3.2-1.1-4.9-3.4-4.9s-3.4,1.7-3.4,4.9v12c0,3.2,1.2,4.9,3.4,4.9s3.4-1.7,3.4-4.9Z"/>
      <path class="st1" d="M392.6,138.7c0-1.9.5-3,1.3-3h3.4v-37.3h8.7v43.3h-12.1c-.8,0-1.3-1.1-1.3-3Z"/>
      <path class="st1" d="M412.3,141.7v-43.3h8.6v43.3h-8.6Z"/>
    </g>
    <g>
      <path class="st1" d="M112.4,274.8c-6.2,0-11.8-.8-16.6-2.3s-8.9-3.7-12.1-6.6c-3.3-2.9-5.7-6.4-7.2-10.5-1.6-4.1-2.1-8.8-1.8-14l17.1-3.4c-.3,5.1.5,9.2,2.4,12.4,1.9,3.2,4.5,5.5,7.8,7,3.3,1.5,7,2.2,11,2.2s7.2-.5,9.9-1.4c2.7-.9,4.8-2.3,6.4-4.2,1.6-1.9,2.3-4,2.3-6.6s-1-6-3.1-7.9c-2.1-2-4.8-3.5-8.2-4.7-3.4-1.2-7.1-2.3-11.1-3.5-4-1.1-8-2.3-12-3.7-4-1.4-7.6-3.1-10.9-5.1-3.3-2-5.9-4.7-7.8-8-2-3.3-2.9-7.3-2.9-12.1s1.4-10.8,4.3-15c2.9-4.2,7-7.5,12.2-9.9,5.3-2.3,11.4-3.5,18.4-3.5s13.4,1.2,18.9,3.7c5.5,2.4,9.7,6,12.7,10.8,3,4.7,4.2,10.6,3.7,17.6l-17,2.8c.2-3.1,0-5.9-.8-8.3-.7-2.4-2-4.5-3.7-6.2-1.7-1.7-3.8-3-6.1-4-2.4-1-5.2-1.5-8.4-1.5s-6.4.5-8.9,1.5c-2.5,1-4.4,2.5-5.8,4.3-1.4,1.9-2,4-2,6.4s1,5.4,2.9,7.2c2,1.8,4.6,3.2,7.9,4.4,3.3,1.2,7,2.2,11,3.2,4.1,1.2,8.2,2.5,12.2,3.9,4,1.4,7.8,3.2,11.1,5.3,3.4,2.1,6.1,5,8.2,8.4,2.1,3.5,3.1,7.8,3.1,13s-1.6,11.2-4.7,15.4c-3.1,4.2-7.5,7.4-13,9.6-5.6,2.2-12.1,3.3-19.5,3.3Z"/>
      <path class="st1" d="M180.2,274.8c-3.7,0-7.2-.7-10.5-2.1-3.3-1.4-6-3.7-8.1-6.7-2.1-3.1-3.1-7.1-3.1-11.9s.9-8.2,2.6-11.1c1.8-2.9,4.1-5.2,7-7,2.9-1.8,6.2-3.2,10-4.2,3.7-1,7.4-1.8,11.1-2.5,5.2-1.1,9-1.9,11.5-2.5,2.5-.6,4.1-1.3,5-2.2.8-.9,1.2-2.1,1.2-3.7,0-3.8-1.3-6.7-3.8-8.7-2.5-2-5.8-3-9.7-3s-5,.5-7.3,1.4c-2.3.9-4.3,2.6-5.8,4.9-1.5,2.3-2.3,5.5-2.4,9.4l-16.5-1.6c0-5.6,1.1-10.2,3.1-13.8,2-3.7,4.5-6.6,7.7-8.8,3.2-2.2,6.6-3.8,10.3-4.8,3.7-1,7.5-1.5,11.4-1.5,6.5,0,12.1,1.2,16.6,3.7,4.5,2.5,8,6.1,10.5,10.9,2.4,4.8,3.7,10.8,3.7,18v14.6c0,3.3.1,6.7.1,10.2v20.9h-16.1c.2-4,.4-8,.5-11.9.1-3.9.3-8,.4-12.3h-1c-.6,5-2.1,9.4-4.6,13.3-2.5,3.9-5.7,7-9.7,9.4s-8.6,3.5-14,3.5ZM186.9,260.8c2.2,0,4.5-.5,6.9-1.5,2.3-1,4.5-2.5,6.4-4.5,1.9-2,3.5-4.5,4.8-7.5,1.3-3,1.9-6.5,1.9-10.5v-3.7c.1,0,4-.9,4-.9-.9,1.2-2.3,2.2-4.4,3.1-2,.9-4.4,1.6-7,2-2.6.4-5.3.9-7.9,1.4-2.6.5-5.1,1.2-7.3,2.1-2.2.9-4.1,2.2-5.5,3.8-1.4,1.6-2.1,3.8-2.1,6.5s1,5.3,2.9,7c1.9,1.6,4.4,2.4,7.5,2.4Z"/>
      <path class="st1" d="M238.7,272.8v-100.7h18v100.7h-18Z"/>
      <path class="st1" d="M290.2,274.8c-3.7,0-7.2-.7-10.5-2.1-3.3-1.4-6-3.7-8.1-6.7-2.1-3.1-3.1-7.1-3.1-11.9s.9-8.2,2.6-11.1c1.8-2.9,4.1-5.2,7-7,2.9-1.8,6.2-3.2,10-4.2,3.7-1,7.4-1.8,11.1-2.5,5.2-1.1,9-1.9,11.5-2.5,2.5-.6,4.1-1.3,5-2.2.8-.9,1.2-2.1,1.2-3.7,0-3.8-1.3-6.7-3.8-8.7-2.5-2-5.8-3-9.7-3s-5,.5-7.3,1.4c-2.3.9-4.3,2.6-5.8,4.9-1.5,2.3-2.3,5.5-2.4,9.4l-16.5-1.6c0-5.6,1.1-10.2,3.1-13.8,2-3.7,4.5-6.6,7.7-8.8,3.2-2.2,6.6-3.8,10.3-4.8,3.7-1,7.5-1.5,11.4-1.5,6.5,0,12.1,1.2,16.6,3.7,4.5,2.5,8,6.1,10.5,10.9,2.4,4.8,3.7,10.8,3.7,18v14.6c0,3.3.1,6.7.1,10.2v20.9h-16.1c.2-4,.4-8,.5-11.9.1-3.9.3-8,.4-12.3h-1c-.6,5-2.1,9.4-4.6,13.3-2.5,3.9-5.7,7-9.7,9.4-4,2.3-8.6,3.5-14,3.5ZM297,260.8c2.2,0,4.5-.5,6.9-1.5,2.3-1,4.5-2.5,6.4-4.5,1.9-2,3.5-4.5,4.8-7.5,1.3-3,1.9-6.5,1.9-10.5v-3.7c.1,0,4-.9,4-.9-.9,1.2-2.3,2.2-4.4,3.1-2,.9-4.4,1.6-7,2-2.6.4-5.3.9-7.9,1.4-2.6.5-5.1,1.2-7.3,2.1-2.2.9-4.1,2.2-5.5,3.8-1.4,1.6-2.1,3.8-2.1,6.5s1,5.3,2.9,7c1.9,1.6,4.4,2.4,7.5,2.4Z"/>
      <path class="st1" d="M355.5,272.8v-49.8h-11.1v-13.3l20.9,1.3v-1.2c-4.9-.7-8.7-2-11.4-3.9-2.7-1.9-4.7-4.2-5.8-6.9-1.1-2.7-1.7-5.4-1.7-8.1,0-4,1-7.6,3.1-10.8,2-3.2,5-5.6,8.7-7.4,3.8-1.8,8.1-2.6,13-2.6s7.6.6,10.9,1.8c3.3,1.2,6.2,3,8.9,5.4l-1.9,17c-2.6-2.3-5.2-4-7.7-5.1-2.5-1-5-1.5-7.4-1.5s-5.9.9-7.8,2.6c-1.9,1.7-2.9,4-2.9,7s.6,4.1,1.7,5.9c1.1,1.8,2.7,3.1,4.6,4.2,2,1,4.3,1.5,7,1.5h13.3v14.2h-16.5v49.8h-17.9Z"/>
      <path class="st1" d="M410.1,188.7c-3.6,0-6.4-.8-8.3-2.3-1.9-1.6-2.9-3.8-2.9-6.6s1-5.1,2.9-6.7c1.9-1.5,4.7-2.3,8.3-2.3s6.2.8,8.1,2.3c1.9,1.6,2.8,3.8,2.8,6.7s-.9,4.9-2.8,6.4c-1.9,1.6-4.5,2.3-8.1,2.3ZM401.2,272.8v-76.6h18v76.6h-18Z"/>
    </g>
    <g>
      <path class="st1" d="M74.5,379v-83.1h24.1l19.8,65.8h.3l19.8-65.8h22.8v83.1h-14.6v-67.6h-.3l-21,67.6h-14.9l-20.9-67.5h-.3v67.5h-14.7Z"/>
      <path class="st1" d="M190.7,380.8c-3.2,0-6.2-.6-9.1-1.8-2.9-1.2-5.2-3.1-7-5.8-1.8-2.6-2.7-6.1-2.7-10.3s.8-7,2.3-9.5c1.5-2.5,3.5-4.5,6-6,2.5-1.6,5.4-2.7,8.6-3.6,3.2-.8,6.4-1.6,9.6-2.1,4.4-.9,7.7-1.6,9.9-2.1,2.1-.5,3.6-1.1,4.3-1.9.7-.8,1.1-1.8,1.1-3.1,0-3.3-1.1-5.8-3.3-7.5-2.2-1.7-5-2.6-8.3-2.6s-4.3.4-6.3,1.2c-2,.8-3.7,2.2-5,4.2-1.3,2-2,4.7-2.1,8.1l-14.2-1.4c0-4.8,1-8.8,2.6-11.9,1.7-3.1,3.9-5.7,6.6-7.6,2.7-1.9,5.7-3.3,8.9-4.2,3.2-.9,6.5-1.3,9.8-1.3,5.6,0,10.4,1.1,14.3,3.2,3.9,2.1,6.9,5.3,9,9.4,2.1,4.1,3.1,9.3,3.1,15.5v12.6c0,2.9.1,5.8.1,8.8v18h-13.9c.2-3.4.3-6.8.4-10.2.1-3.4.2-6.9.3-10.6h-.9c-.5,4.3-1.8,8.1-4,11.5-2.1,3.4-4.9,6-8.3,8.1-3.4,2-7.4,3-12,3ZM196.5,368.7c1.9,0,3.9-.4,5.9-1.3,2-.8,3.8-2.1,5.5-3.8,1.6-1.7,3-3.9,4.1-6.4,1.1-2.6,1.6-5.6,1.6-9v-3.1c.1,0,3.4-.8,3.4-.8-.8,1-2,1.9-3.8,2.7-1.8.8-3.8,1.4-6,1.8-2.3.4-4.5.8-6.8,1.2-2.3.4-4.4,1-6.3,1.8-1.9.8-3.5,1.9-4.7,3.3-1.2,1.4-1.8,3.3-1.8,5.6s.8,4.6,2.5,6c1.6,1.4,3.8,2.1,6.5,2.1Z"/>
      <path class="st1" d="M267.7,380.8c-4.3,0-8.2-.5-11.8-1.4-3.6-.9-6.7-2.4-9.3-4.3-2.6-2-4.5-4.6-5.8-7.8-1.3-3.2-1.7-7.1-1.4-11.5l13.7-1.3c0,3.4.5,6.3,1.7,8.4,1.2,2.2,2.9,3.8,5.2,4.8,2.2,1,4.9,1.5,8.1,1.5s6.7-.6,8.9-2c2.2-1.3,3.3-3.3,3.3-5.9s-.6-3.2-1.7-4.3c-1.1-1.1-2.8-2-5-2.8-2.2-.8-5-1.5-8.2-2.3-3.6-.9-7-1.9-10.2-2.8-3.2-1-5.9-2.1-8.2-3.5s-4.1-3.2-5.4-5.4c-1.3-2.2-2-5-2-8.3s1.1-7.8,3.3-10.9c2.2-3.1,5.3-5.4,9.3-7.1,4-1.7,8.6-2.5,13.9-2.5s9.4.8,13.5,2.4c4.2,1.6,7.4,4.2,9.8,7.7,2.3,3.5,3.3,8.1,2.8,13.9l-13.6,1.5c.3-3-.2-5.5-1.3-7.6-1.1-2-2.7-3.5-4.7-4.6-2.1-1-4.5-1.6-7.4-1.6s-5.9.7-7.9,2.1c-2,1.4-3,3.3-3,5.7s.6,3.4,1.8,4.5c1.2,1.2,3,2.1,5.4,2.8,2.3.7,5.2,1.4,8.4,2.1,2.8.6,5.6,1.3,8.6,2.1,2.9.8,5.6,2,8.1,3.5,2.5,1.5,4.5,3.4,6.1,5.9,1.6,2.4,2.4,5.5,2.4,9.2s-1.1,7.4-3.2,10.3c-2.1,2.9-5.3,5.2-9.4,6.9-4.1,1.6-9.1,2.5-15,2.5Z"/>
      <path class="st1" d="M303.2,398.3c-1.1,0-2.3-.1-3.7-.3-1.3-.2-2.7-.4-4-.7l-1.4-13.5c4.3.8,7.3.6,9.1-.6,1.8-1.1,2.6-3.8,2.6-7.9v-62.2h15.6v62c0,4.1-.4,7.6-1.3,10.6-.8,2.9-2.1,5.3-3.7,7.2-1.6,1.8-3.6,3.2-5.8,4.1-2.2.9-4.7,1.3-7.5,1.3ZM313.8,306.7c-3.1,0-5.5-.7-7.1-2-1.6-1.3-2.5-3.2-2.5-5.7s.8-4.4,2.5-5.7c1.6-1.3,4-2,7.1-2s5.3.7,6.9,2c1.6,1.3,2.4,3.3,2.4,5.8s-.8,4.2-2.4,5.5c-1.6,1.3-3.9,2-6.9,2Z"/>
      <path class="st1" d="M341.9,306.7c-3.1,0-5.5-.7-7.1-2-1.6-1.3-2.5-3.2-2.5-5.7s.8-4.4,2.5-5.7c1.6-1.3,4-2,7.1-2s5.3.7,6.9,2c1.6,1.3,2.4,3.3,2.4,5.8s-.8,4.2-2.4,5.5c-1.6,1.3-3.9,2-6.9,2ZM334.2,379v-65.9h15.5v65.9h-15.5Z"/>
      <path class="st1" d="M385.4,380.8c-4.6,0-8.8-1.2-12.5-3.7-3.7-2.5-6.7-6.3-8.9-11.5-2.2-5.2-3.3-11.8-3.3-19.7s1-14,3-19.1c2-5.1,4.8-8.9,8.5-11.5,3.7-2.6,7.9-3.8,12.7-3.8s7.5.9,10.5,2.7c3,1.8,5.4,4.5,7.2,8.2,1.8,3.7,3.1,8.3,3.9,13.9h1.1c-.4-3.4-.8-6.7-1.3-9.6-.4-3-.7-5.8-.9-8.3-.2-2.6-.3-4.9-.3-7.1v-18.9h15.6v60.1c-.1,0,.1,26.6.1,26.6h-14l.6-21.3h-1c-.9,5.1-2.4,9.4-4.3,12.8-1.9,3.4-4.3,6-7.1,7.7-2.8,1.7-6.1,2.5-9.8,2.5ZM390,368.1c2.4,0,4.6-.6,6.5-1.9,1.9-1.3,3.5-2.9,4.8-4.8,1.3-2,2.3-4.2,3-6.7.7-2.5,1-5,1-7.6v-1c0-2-.2-4-.6-6-.4-2-1-3.9-1.8-5.7-.8-1.8-1.8-3.4-3-4.9-1.2-1.5-2.6-2.6-4.3-3.3-1.6-.8-3.4-1.1-5.2-1.1-2.9,0-5.3.9-7.4,2.7-2.1,1.8-3.7,4.3-4.8,7.6-1.1,3.2-1.6,7-1.6,11.4s.5,7.9,1.6,11.1c1.1,3.2,2.6,5.7,4.6,7.6,2,1.8,4.4,2.8,7.4,2.8Z"/>
    </g>
  </g>
</svg>